PathFileType	4	(X/Y/Z)	Walk4.trc
DataRate	CameraRate	NumFrames	NumMarkers	Units	OrigDataRate	OrigDataStartFrame	OrigNumFrames
200.000000	200.000000	8	61	mm	200.000000	673	877
Frame#	Times		RCAR		LTH3		RTH2		LBHD		LWRU		LUA1		LFA1		LCAR		RFA1		LElbow		RTB3		RTB1		RToe		RTB2		RMT5		RBHD		LWRR		LTH2		LElbowM		RPSI		C7		RLFC		RMT1		LTH4		STRN		LASI		RLMAL		RBack		T10		LTH1		LPSI		CLAV		LLFC		RUA1		LACR1		RCAL		LTB3		RElbowM		RTH3		LCAL		RTH1		RFHD		RElbow		LTB1		LMMAL		LTB2		LFHD		RTH4		RASI		LMFC		LTB4		RMMAL		LMT5		RMFC		RACR1		RWRR		RWRU		LLMAL		RTB4		LToe		LMT1
			X1	Y1	Z1	X2	Y2	Z2	X3	Y3	Z3	X4	Y4	Z4	X5	Y5	Z5	X6	Y6	Z6	X7	Y7	Z7	X8	Y8	Z8	X9	Y9	Z9	X10	Y10	Z10	X11	Y11	Z11	X12	Y12	Z12	X13	Y13	Z13	X14	Y14	Z14	X15	Y15	Z15	X16	Y16	Z16	X17	Y17	Z17	X18	Y18	Z18	X19	Y19	Z19	X20	Y20	Z20	X21	Y21	Z21	X22	Y22	Z22	X23	Y23	Z23	X24	Y24	Z24	X25	Y25	Z25	X26	Y26	Z26	X27	Y27	Z27	X28	Y28	Z28	X29	Y29	Z29	X30	Y30	Z30	X31	Y31	Z31	X32	Y32	Z32	X33	Y33	Z33	X34	Y34	Z34	X35	Y35	Z35	X36	Y36	Z36	X37	Y37	Z37	X38	Y38	Z38	X39	Y39	Z39	X40	Y40	Z40	X41	Y41	Z41	X42	Y42	Z42	X43	Y43	Z43	X44	Y44	Z44	X45	Y45	Z45	X46	Y46	Z46	X47	Y47	Z47	X48	Y48	Z48	X49	Y49	Z49	X50	Y50	Z50	X51	Y51	Z51	X52	Y52	Z52	X53	Y53	Z53	X54	Y54	Z54	X55	Y55	Z55	X56	Y56	Z56	X57	Y57	Z57	X58	Y58	Z58	X59	Y59	Z59	X60	Y60	Z60	X61	Y61	Z61

673	3.365	-94.509	811.21	360.18	-154.68	606.26	-168.09	84.863	719.56	160.79	-70.64	1626.1	-77.853	104.73	895.65	-317.14	-52.186	1292.5	-279.59	25.489	1005	-334.58	186.6	892.54	-329.1	-159.63	985.01	326.17	-50.445	1139.2	-325.97	154.22	198.82	104.64	145.66	384.59	112.1	318.41	50.546	123.55	123.82	284.07	170.97	225.04	26.943	178.78	-63.453	1633.6	63.762	163.04	936.58	-273.92	-63.609	680.51	-155.29	-83.271	1114	-258.64	-214.74	1007	49.881	-100.88	1498	-3.3554	70.922	499.33	178.14	270.25	46.726	102.94	-129.9	694.46	-178.66	67.86	1230.8	-10.548	-16.106	1019.5	-143.53	125.33	68.712	148.46	-183.67	1412.9	123.8	-214.2	1279	-4.8123	-102.71	783.24	-190.39	-219.9	1006.9	-27.125	27.116	1404.6	-5.158	-194.95	506.84	-159.71	-93.968	1275.1	255.63	-31.281	1453.3	-169.04	75.893	30.472	95.73	-312.52	202.58	-90.568	-172.41	1113.7	213.58	45.938	607.18	181.58	-481.16	85.901	-99.541	-9.1067	789.88	201.26	112.89	1663.5	32.065	-156.22	1131.7	291.08	-212.78	359.6	-85.304	-382.77	117.38	-54.47	-274.4	295.61	-159.41	110.35	1660.7	-44.527	22.148	699.54	196.62	1.6211	1019.4	143.7	-184.33	509.9	-30.106	-260.69	283.92	-86.32	157.47	98.166	70.359	-332.09	25.474	-166.51	82.528	510.67	45.151	-28.661	1440.9	158.55	-79.978	844.71	303.7	-147.92	848.09	339.97	-409.91	108.45	-138.67	151.34	291.65	106.82	-232.26	27.461	-97.266	-285.23	37.667	-82.149
674	3.37	-87.907	810.66	360.85	-147.78	605.68	-167.33	91.615	720.24	161.51	-65.185	1626.2	-76.598	108.4	895.02	-315.93	-47.444	1292.3	-278.36	29.386	1004.5	-333.25	190.21	891.71	-328.11	-153	984.5	327.07	-46.138	1139	-324.57	156.67	198.28	104.49	150.46	384.15	112.13	319.7	47.59	122.74	128	283.85	171.14	225.38	26.082	178.93	-57.919	1633.6	65.016	166.91	935.84	-272.9	-57.017	680.24	-154.29	-78.803	1114	-257.12	-208.84	1007	50.941	-95.319	1498	-2.141	77.474	499.72	178.82	270.95	45.029	102.46	-123.33	694.01	-177.7	73.614	1230.9	-9.4972	-10.162	1019.3	-142.07	126.37	68.602	148.48	-178.02	1412.6	125.09	-208.55	1279	-3.6927	-96.484	782.91	-189.26	-214.03	1006.8	-26.104	32.685	1404.6	-4.0759	-187.92	506.34	-159.18	-87.852	1274.7	256.69	-25.851	1453.4	-168	76.078	30.918	96.032	-309.28	203.63	-90.529	-166.01	1113.2	214.65	52.681	607.78	182.17	-479.42	89.79	-99.415	-2.4837	790.43	202.06	118.4	1663.5	33.24	-149.65	1131.1	292.11	-207.37	359.2	-85.079	-380.55	119.35	-54.583	-269.84	296.17	-159.28	115.81	1660.8	-43.358	28.844	700.13	197.29	7.6466	1019.6	144.87	-177.56	509.31	-29.63	-256.31	284.2	-86.187	158.41	97.599	70.147	-331.88	26.03	-166.28	88.395	511.16	45.83	-23.035	1440.7	159.64	-73.513	844.12	304.29	-141.32	847.58	340.78	-408	110.96	-138.75	154.93	291.14	106.73	-232.38	27.357	-97.288	-284.96	37.532	-82.099
675	3.375	-81.136	810.17	361.45	-140.6	605.07	-166.58	98.297	720.95	162.24	-59.718	1626.3	-75.351	111.93	894.36	-314.7	-42.697	1292.2	-277.11	33.182	1004.1	-331.88	193.68	890.82	-327.1	-146.26	984.04	327.96	-41.872	1138.8	-323.11	159.01	197.78	104.33	155.12	383.73	112.17	320.91	44.906	122.04	132.05	283.64	171.32	225.64	25.417	179.11	-52.381	1633.6	66.267	170.66	935.06	-271.86	-50.218	680	-153.26	-74.371	1114	-255.54	-202.94	1007.1	52.006	-89.753	1498.1	-0.94087	83.911	500.1	179.51	271.57	43.571	102.06	-116.56	693.56	-176.75	79.368	1231.1	-8.4417	-4.2159	1019.1	-140.59	127.3	68.548	148.46	-172.36	1412.5	126.38	-202.9	1278.9	-2.5846	-90.122	782.6	-188.11	-208.16	1006.6	-25.083	38.259	1404.8	-2.9987	-180.57	505.83	-158.69	-81.696	1274.4	257.74	-20.404	1453.5	-166.96	76.239	31.34	96.301	-305.77	204.76	-90.526	-159.56	1112.7	215.72	59.357	608.42	182.82	-477.43	93.937	-99.225	4.0972	791.04	202.88	123.91	1663.7	34.424	-143.02	1130.7	293.14	-201.66	358.8	-84.928	-378.06	121.44	-54.705	-265.04	296.8	-159.19	121.28	1661	-42.181	35.492	700.76	197.99	13.661	1019.9	146.09	-170.47	508.66	-29.2	-251.65	284.53	-86.111	159.24	97.096	69.913	-331.64	26.657	-166.03	94.163	511.67	46.503	-17.394	1440.6	160.72	-66.915	843.61	304.82	-134.57	847.11	341.55	-405.87	113.62	-138.8	158.39	290.67	106.64	-232.53	27.251	-97.301	-284.69	37.377	-82.031
676	3.38	-74.194	809.76	361.98	-133.15	604.45	-165.86	104.88	721.65	162.96	-54.239	1626.4	-74.115	115.32	893.68	-313.42	-37.941	1292.1	-275.85	36.88	1003.7	-330.46	197	889.87	-326.08	-139.41	983.63	328.82	-37.644	1138.7	-321.61	161.24	197.31	104.15	159.63	383.32	112.21	322.03	42.495	121.45	135.96	283.43	171.47	225.85	24.926	179.31	-46.84	1633.7	67.509	174.3	934.23	-270.81	-43.212	679.8	-152.22	-69.975	1114	-253.9	-197.03	1007.2	53.079	-84.19	1498.2	0.24249	90.2	500.45	180.18	272.14	42.34	101.73	-109.59	693.1	-175.8	85.117	1231.3	-7.3836	1.7294	1019.1	-139.1	128.15	68.543	148.42	-166.7	1412.4	127.66	-197.26	1279	-1.4881	-83.628	782.31	-186.94	-202.3	1006.5	-24.056	43.835	1405	-1.9287	-172.89	505.3	-158.22	-75.5	1274.2	258.77	-14.946	1453.6	-165.91	76.385	31.734	96.528	-301.99	205.97	-90.565	-153.07	1112.4	216.77	65.93	609.08	183.52	-475.14	98.343	-98.966	10.617	791.68	203.72	129.43	1663.8	35.613	-136.34	1130.2	294.16	-195.62	358.41	-84.861	-375.29	123.64	-54.84	-259.99	297.5	-159.15	126.77	1661.2	-40.999	42.064	701.41	198.72	19.662	1020.3	147.34	-163.06	507.97	-28.822	-246.67	284.91	-86.098	159.99	96.651	69.653	-331.37	27.369	-165.75	99.808	512.18	47.161	-11.739	1440.6	161.78	-60.184	843.17	305.27	-127.67	846.7	342.26	-403.51	116.44	-138.84	161.72	290.22	106.55	-232.72	27.141	-97.306	-284.4	37.207	-81.946
677	3.385	-67.08	809.41	362.44	-125.43	603.81	-165.15	111.35	722.31	163.68	-48.752	1626.6	-72.893	118.57	892.98	-312.11	-33.173	1292.1	-274.56	40.485	1003.3	-329.01	200.17	888.86	-325.04	-132.47	983.27	329.65	-33.452	1138.7	-320.07	163.36	196.87	103.95	163.97	382.91	112.26	323.09	40.354	120.94	139.73	283.21	171.61	226.02	24.587	179.51	-41.3	1633.8	68.741	177.83	933.36	-269.73	-35.997	679.64	-151.18	-65.613	1114.1	-252.22	-191.12	1007.4	54.165	-78.636	1498.3	1.4075	96.306	500.75	180.83	272.66	41.322	101.46	-102.41	692.63	-174.86	90.857	1231.6	-6.3254	7.6691	1019.1	-137.6	128.92	68.577	148.34	-161.02	1412.4	128.94	-191.62	1279	-0.40237	-77.001	782.03	-185.76	-196.45	1006.5	-23.018	49.411	1405.2	-0.86853	-164.88	504.76	-157.79	-69.267	1274	259.79	-9.4806	1453.8	-164.86	76.523	32.099	96.711	-297.91	207.27	-90.649	-146.54	1112.1	217.81	72.363	609.73	184.24	-472.54	103.01	-98.636	17.057	792.32	204.58	134.95	1664	36.805	-129.6	1129.9	295.16	-189.25	358.03	-84.885	-372.21	125.95	-54.99	-254.66	298.29	-159.15	132.26	1661.5	-39.817	48.533	702.04	199.47	25.649	1020.8	148.64	-155.29	507.21	-28.5	-241.39	285.33	-86.153	160.67	96.252	69.362	-331.04	28.177	-165.45	105.31	512.69	47.799	-6.0716	1440.6	162.83	-53.32	842.82	305.66	-120.62	846.34	342.94	-400.9	119.43	-138.86	164.91	289.79	106.44	-232.95	27.029	-97.301	-284.1	37.028	-81.845
678	3.39	-59.793	809.14	362.83	-117.43	603.14	-164.48	117.68	722.9	164.4	-43.258	1626.9	-71.688	121.68	892.27	-310.77	-28.391	1292.1	-273.26	44.001	1002.9	-327.51	203.2	887.8	-323.98	-125.41	982.96	330.47	-29.292	1138.6	-318.5	165.38	196.44	103.74	168.15	382.5	112.3	324.08	38.474	120.53	143.34	282.97	171.72	226.17	24.376	179.7	-35.762	1634	69.958	181.24	932.44	-268.62	-28.571	679.52	-150.15	-61.285	1114.3	-250.49	-185.22	1007.7	55.267	-73.095	1498.5	2.5532	102.2	501	181.46	273.14	40.498	101.24	-95.031	692.16	-173.93	96.583	1232	-5.2701	13.599	1019.2	-136.11	129.62	68.642	148.23	-155.34	1412.4	130.21	-185.98	1279.1	0.6742	-70.241	781.75	-184.57	-190.62	1006.5	-21.963	54.982	1405.5	0.17963	-156.53	504.2	-157.39	-62.997	1273.9	260.79	-4.0156	1454.1	-163.81	76.656	32.432	96.847	-293.51	208.65	-90.782	-139.98	1111.9	218.85	78.621	610.35	184.99	-469.59	107.93	-98.238	23.402	792.95	205.45	140.47	1664.2	37.995	-122.8	1129.6	296.15	-182.54	357.65	-85.003	-368.8	128.37	-55.156	-249.07	299.16	-159.2	137.76	1661.7	-38.636	54.874	702.64	200.23	31.619	1021.3	149.96	-147.17	506.38	-28.236	-235.77	285.79	-86.279	161.28	95.892	69.042	-330.64	29.098	-165.13	110.63	513.16	48.411	-0.39485	1440.7	163.85	-46.324	842.55	305.98	-113.4	846.04	343.56	-398.01	122.57	-138.87	167.96	289.37	106.32	-233.21	26.915	-97.288	-283.78	36.849	-81.731
679	3.395	-52.332	808.95	363.14	-109.15	602.46	-163.85	123.84	723.41	165.13	-37.76	1627.2	-70.502	124.67	891.53	-309.39	-23.594	1292.1	-271.95	47.431	1002.6	-325.98	206.09	886.69	-322.9	-118.26	982.71	331.26	-25.162	1138.6	-316.88	167.29	196.03	103.5	172.15	382.07	112.33	325.01	36.843	120.2	146.79	282.72	171.8	226.3	24.27	179.87	-30.229	1634.2	71.158	184.55	931.48	-267.5	-20.938	679.44	-149.12	-56.988	1114.5	-248.71	-179.32	1007.9	56.386	-67.571	1498.8	3.6796	107.85	501.19	182.05	273.58	39.847	101.05	-87.442	691.68	-173.03	102.29	1232.4	-4.2208	19.514	1019.3	-134.61	130.26	68.727	148.08	-149.65	1412.5	131.46	-180.36	1279.2	1.744	-63.348	781.48	-183.38	-184.8	1006.5	-20.888	60.544	1405.8	1.2137	-147.87	503.63	-157.03	-56.693	1273.9	261.78	1.4427	1454.4	-162.76	76.786	32.734	96.938	-288.79	210.11	-90.966	-133.39	1111.7	219.88	84.674	610.91	185.75	-466.28	113.09	-97.773	29.637	793.53	206.35	145.99	1664.5	39.181	-115.96	1129.4	297.13	-175.48	357.29	-85.215	-365.06	130.88	-55.341	-243.19	300.12	-159.31	143.27	1662.1	-37.461	61.063	703.18	201	37.572	1021.9	151.31	-138.68	505.48	-28.03	-229.81	286.3	-86.477	161.85	95.562	68.692	-330.14	30.148	-164.8	115.77	513.6	48.996	5.2894	1440.9	164.86	-39.195	842.37	306.22	-106.04	845.8	344.14	-394.83	125.87	-138.87	170.88	288.95	106.19	-233.48	26.797	-97.269	-283.42	36.681	-81.605
680	3.4	-44.699	808.83	363.37	-100.61	601.75	-163.26	129.84	723.8	165.87	-32.262	1627.6	-69.338	127.53	890.78	-307.98	-18.781	1292.2	-270.62	50.781	1002.2	-324.42	208.85	885.52	-321.81	-111	982.52	332.03	-21.061	1138.6	-315.24	169.1	195.63	103.25	175.97	381.63	112.35	325.87	35.447	119.96	150.08	282.45	171.85	226.41	24.248	180.02	-24.703	1634.4	72.337	187.75	930.48	-266.36	-13.1	679.4	-148.11	-52.722	1114.8	-246.89	-173.42	1008.2	57.526	-62.068	1499	4.7869	113.25	501.31	182.62	273.98	39.346	100.9	-79.651	691.19	-172.16	107.98	1232.8	-3.1814	25.41	1019.5	-133.13	130.84	68.827	147.9	-143.96	1412.7	132.71	-174.75	1279.4	2.8098	-56.327	781.22	-182.2	-179.01	1006.5	-19.789	66.095	1406.2	2.2317	-138.89	503.04	-156.71	-50.357	1273.9	262.76	6.8878	1454.7	-161.71	76.914	33.005	96.984	-283.73	211.65	-91.201	-126.78	1111.6	220.9	90.499	611.4	186.5	-462.57	118.48	-97.248	35.752	794.06	207.27	151.52	1664.8	40.356	-109.07	1129.2	298.1	-168.06	356.93	-85.517	-360.95	133.48	-55.543	-237.02	301.17	-159.45	148.77	1662.4	-36.296	67.081	703.64	201.78	43.505	1022.5	152.67	-129.82	504.5	-27.878	-223.5	286.86	-86.745	162.36	95.256	68.317	-329.52	31.346	-164.46	120.7	513.98	49.554	10.979	1441.1	165.85	-31.934	842.28	306.39	-98.518	845.61	344.67	-391.33	129.31	-138.85	173.66	288.53	106.04	-233.76	26.677	-97.247	-283.02	36.541	-81.47
